<?xml version="1.0" encoding="utf-8"?>
<!-- Generator: Adobe Illustrator 27.3.1, SVG Export Plug-In . SVG Version: 6.00 Build 0)  -->
<svg version="1.1" id="Capa_1" xmlns="http://www.w3.org/2000/svg" xmlns:xlink="http://www.w3.org/1999/xlink" x="0px" y="0px"
	 viewBox="0 0 807.9 807.9" enable-background="new 0 0 807.9 807.9" xml:space="preserve">
<rect fill="#FFFFFF" width="807.9" height="807.9"/>
<path d="M788.1,634.7l-5.4-9.5c-20.2-36-67.5-120.2-116.3-192c-16.4-24.1-32.9-46.6-47.9-66.9c-23.9-32.6-53.6-73.1-53.9-85.1
	c1.8-52.8,0.6-177.7,0.1-216.4H596V10.1H201.7v54.7h41.3c-0.5,38.6-1.7,163.5,0.1,216.3c-0.3,12.1-30,52.6-54,85.2
	c-14.9,20.4-31.4,42.9-47.8,66.9C92.6,505,45.3,589.2,25.1,625.2l-5.4,9.5c-20.8,36.7-21,86.8-0.7,121.9
	c15.5,26.6,40.3,41.2,69.9,41.2l0,0h630h0.1c29.5,0,54.4-14.6,69.8-41.2C809.2,721.6,809,671.5,788.1,634.7z M749.6,733.8
	c-7.2,12.4-17.5,18.7-30.7,18.7h-630c-13.1,0-23.4-6.3-30.7-18.7c-12.3-21.1-11.9-54.1,0.9-76.7l5.4-9.7
	c19.9-35.4,66.5-118.4,114.4-188.7c16-23.7,32.2-45.7,46.9-65.7c41.7-56.9,63.5-87.8,62.7-113.4c-1.6-47-0.8-156.3-0.3-203.5h231.5
	c0.5,47.2,1.4,156.5-0.2,203.5c-0.9,25.6,20.9,56.4,62.6,113.4c14.6,20,30.8,42,46.9,65.7c47.8,70.2,94.4,153.3,114.3,188.7l5.4,9.7
	C761.6,679.7,761.9,712.7,749.6,733.8z"/>
<path fill="#C80041" d="M178.4,496.4c-7,9.6-14.3,19.6-21.6,30.5c-28.7,42.2-56.6,91.7-68.4,112.9l-3.1,5.6
	c-12.2,21.6-12.4,51-0.4,71.7c9.1,15.6,23.7,24.2,41.1,24.2h556.2c17.4,0,32-8.6,41.1-24.2c11.9-20.6,11.8-50-0.4-71.7l-3.2-5.6
	c-11.9-21.1-39.7-70.6-68.4-112.9c-7.3-10.9-14.6-20.9-21.6-30.5L178.4,496.4z"/>
</svg>
