<?xml version="1.0" encoding="UTF-8" standalone="no"?>
<!DOCTYPE svg PUBLIC "-//W3C//DTD SVG 1.1//EN" "http://www.w3.org/Graphics/SVG/1.1/DTD/svg11.dtd">
<svg width="100%" height="100%" viewBox="0 0 108 125" version="1.1" xmlns="http://www.w3.org/2000/svg" xmlns:xlink="http://www.w3.org/1999/xlink" xml:space="preserve" xmlns:serif="http://www.serif.com/" style="fill-rule:evenodd;clip-rule:evenodd;stroke-linejoin:round;stroke-miterlimit:2;">
    <g transform="matrix(1,0,0,1,-381.465,-183.75)">
        <g transform="matrix(1,0,0,1,-1.09867,2.19735)">
            <g transform="matrix(1,0,0,1,1.09867,-2.19735)">
                <path d="M420.171,210.184L435.335,183.75L489.206,277.658L461.954,277.658C462.287,275.037 462.459,272.366 462.459,269.655C462.459,242.149 444.778,218.741 420.171,210.184ZM447.863,277.658L381.465,277.658L413.073,222.558C433.531,228.445 448.515,247.314 448.515,269.655C448.515,272.38 448.292,275.054 447.863,277.658Z" style="fill:white;"/>
            </g>
        </g>
        <g transform="matrix(1,0,0,1,-1.09867,2.19735)">
            <g transform="matrix(0.634824,0,0,0.634824,226.115,62.4046)">
                <path d="M246.444,356.608L251.331,356.608L251.331,366.35C251.761,366.052 252.267,365.772 252.85,365.507C253.434,365.243 254.061,365.012 254.733,364.814C255.404,364.616 256.098,364.459 256.813,364.343C257.529,364.228 258.244,364.17 258.96,364.17C260.611,364.17 262.127,364.412 263.508,364.897C264.89,365.381 266.076,366.063 267.067,366.944C268.057,367.825 268.831,368.879 269.386,370.106C269.942,371.333 270.22,372.69 270.22,374.176C270.22,375.728 269.929,377.129 269.345,378.378C268.762,379.627 267.955,380.695 266.926,381.581C265.897,382.467 264.675,383.15 263.261,383.628C261.846,384.107 260.314,384.347 258.662,384.347C257.958,384.347 257.262,384.303 256.574,384.215C255.886,384.127 255.225,384.006 254.592,383.851C253.959,383.697 253.365,383.513 252.809,383.298C252.253,383.084 251.761,382.85 251.331,382.597L251.331,384L246.444,384L246.444,356.608ZM251.331,377.874C251.827,378.271 252.35,378.606 252.9,378.882C253.45,379.157 254.012,379.382 254.584,379.558C255.157,379.735 255.734,379.864 256.318,379.947C256.901,380.029 257.468,380.07 258.018,380.07C259.141,380.07 260.14,379.919 261.015,379.616C261.89,379.314 262.628,378.898 263.228,378.37C263.828,377.841 264.287,377.219 264.606,376.504C264.926,375.788 265.085,375.012 265.085,374.176C265.085,373.394 264.928,372.657 264.615,371.963C264.301,371.27 263.85,370.662 263.261,370.139C262.672,369.616 261.962,369.203 261.131,368.901C260.3,368.598 259.367,368.446 258.332,368.446C257.672,368.446 257.011,368.51 256.351,368.636C255.69,368.763 255.055,368.942 254.444,369.173C253.833,369.404 253.26,369.685 252.727,370.015C252.193,370.345 251.728,370.714 251.331,371.121L251.331,377.874Z" style="fill:white;fill-rule:nonzero;"/>
                <path d="M246.444,356.608L251.331,356.608L251.331,366.35C251.761,366.052 252.267,365.772 252.85,365.507C253.434,365.243 254.061,365.012 254.733,364.814C255.404,364.616 256.098,364.459 256.813,364.343C257.529,364.228 258.244,364.17 258.96,364.17C260.611,364.17 262.127,364.412 263.508,364.897C264.89,365.381 266.076,366.063 267.067,366.944C268.057,367.825 268.831,368.879 269.386,370.106C269.942,371.333 270.22,372.69 270.22,374.176C270.22,375.728 269.929,377.129 269.345,378.378C268.762,379.627 267.955,380.695 266.926,381.581C265.897,382.467 264.675,383.15 263.261,383.628C261.846,384.107 260.314,384.347 258.662,384.347C257.958,384.347 257.262,384.303 256.574,384.215C255.886,384.127 255.225,384.006 254.592,383.851C253.959,383.697 253.365,383.513 252.809,383.298C252.253,383.084 251.761,382.85 251.331,382.597L251.331,384L246.444,384L246.444,356.608ZM251.331,377.874C251.827,378.271 252.35,378.606 252.9,378.882C253.45,379.157 254.012,379.382 254.584,379.558C255.157,379.735 255.734,379.864 256.318,379.947C256.901,380.029 257.468,380.07 258.018,380.07C259.141,380.07 260.14,379.919 261.015,379.616C261.89,379.314 262.628,378.898 263.228,378.37C263.828,377.841 264.287,377.219 264.606,376.504C264.926,375.788 265.085,375.012 265.085,374.176C265.085,373.394 264.928,372.657 264.615,371.963C264.301,371.27 263.85,370.662 263.261,370.139C262.672,369.616 261.962,369.203 261.131,368.901C260.3,368.598 259.367,368.446 258.332,368.446C257.672,368.446 257.011,368.51 256.351,368.636C255.69,368.763 255.055,368.942 254.444,369.173C253.833,369.404 253.26,369.685 252.727,370.015C252.193,370.345 251.728,370.714 251.331,371.121L251.331,377.874Z" style="fill:white;fill-rule:nonzero;"/>
                <path d="M277.32,361.859C276.836,361.859 276.398,361.79 276.007,361.652C275.617,361.515 275.284,361.327 275.008,361.091C274.733,360.854 274.521,360.579 274.373,360.265C274.224,359.951 274.15,359.618 274.15,359.266C274.15,358.903 274.224,358.565 274.373,358.251C274.521,357.937 274.733,357.665 275.008,357.434C275.284,357.202 275.617,357.018 276.007,356.88C276.398,356.743 276.836,356.674 277.32,356.674C277.815,356.674 278.258,356.743 278.649,356.88C279.04,357.018 279.373,357.202 279.648,357.434C279.923,357.665 280.135,357.937 280.284,358.251C280.432,358.565 280.507,358.903 280.507,359.266C280.507,359.618 280.432,359.951 280.284,360.265C280.135,360.579 279.923,360.854 279.648,361.091C279.373,361.327 279.04,361.515 278.649,361.652C278.258,361.79 277.815,361.859 277.32,361.859ZM274.876,364.517L279.764,364.517L279.764,384L274.876,384L274.876,364.517Z" style="fill:white;fill-rule:nonzero;"/>
                <path d="M277.32,361.859C276.836,361.859 276.398,361.79 276.007,361.652C275.617,361.515 275.284,361.327 275.008,361.091C274.733,360.854 274.521,360.579 274.373,360.265C274.224,359.951 274.15,359.618 274.15,359.266C274.15,358.903 274.224,358.565 274.373,358.251C274.521,357.937 274.733,357.665 275.008,357.434C275.284,357.202 275.617,357.018 276.007,356.88C276.398,356.743 276.836,356.674 277.32,356.674C277.815,356.674 278.258,356.743 278.649,356.88C279.04,357.018 279.373,357.202 279.648,357.434C279.923,357.665 280.135,357.937 280.284,358.251C280.432,358.565 280.507,358.903 280.507,359.266C280.507,359.618 280.432,359.951 280.284,360.265C280.135,360.579 279.923,360.854 279.648,361.091C279.373,361.327 279.04,361.515 278.649,361.652C278.258,361.79 277.815,361.859 277.32,361.859ZM274.876,364.517L279.764,364.517L279.764,384L274.876,384L274.876,364.517Z" style="fill:white;fill-rule:nonzero;"/>
                <path d="M286.038,356.608L290.925,356.608L290.925,372.789L300.039,364.517L307.519,364.517L297.332,373.631L308.163,384L300.832,384L293.584,376.983L290.925,379.36L290.925,384L286.038,384L286.038,356.608Z" style="fill:white;fill-rule:nonzero;"/>
                <path d="M286.038,356.608L290.925,356.608L290.925,372.789L300.039,364.517L307.519,364.517L297.332,373.631L308.163,384L300.832,384L293.584,376.983L290.925,379.36L290.925,384L286.038,384L286.038,356.608Z" style="fill:white;fill-rule:nonzero;"/>
                <path d="M310.458,374.192C310.458,372.871 310.728,371.608 311.267,370.403C311.806,369.198 312.582,368.133 313.595,367.208C314.608,366.284 315.849,365.546 317.318,364.996C318.788,364.445 320.458,364.17 322.329,364.17C324.19,364.17 325.866,364.448 327.357,365.004C328.849,365.56 330.115,366.322 331.155,367.291C332.195,368.259 332.993,369.399 333.549,370.709C334.105,372.018 334.383,373.422 334.383,374.919C334.383,375.106 334.38,375.307 334.374,375.522C334.369,375.736 334.355,375.932 334.333,376.108L315.907,376.108C316.116,376.691 316.454,377.225 316.922,377.709C317.39,378.194 317.976,378.612 318.681,378.964C319.385,379.316 320.2,379.589 321.124,379.781C322.049,379.974 323.072,380.07 324.195,380.07C325.318,380.07 326.435,379.952 327.547,379.715C328.659,379.479 329.721,379.179 330.734,378.815L332.385,382.547C331.746,382.844 331.1,383.106 330.445,383.331C329.79,383.557 329.107,383.744 328.397,383.893C327.687,384.041 326.944,384.154 326.168,384.231C325.392,384.308 324.575,384.347 323.716,384.347C321.526,384.347 319.605,384.083 317.954,383.554C316.303,383.026 314.921,382.305 313.81,381.391C312.698,380.478 311.861,379.404 311.3,378.172C310.739,376.939 310.458,375.612 310.458,374.192ZM329.198,372.294C329.022,371.754 328.75,371.251 328.381,370.783C328.012,370.315 327.553,369.908 327.002,369.561C326.452,369.214 325.813,368.942 325.087,368.744C324.36,368.546 323.562,368.446 322.693,368.446C321.768,368.446 320.926,368.551 320.167,368.76C319.407,368.969 318.741,369.25 318.169,369.602C317.596,369.954 317.12,370.362 316.74,370.824C316.361,371.286 316.083,371.776 315.907,372.294L329.198,372.294Z" style="fill:white;fill-rule:nonzero;"/>
                <path d="M310.458,374.192C310.458,372.871 310.728,371.608 311.267,370.403C311.806,369.198 312.582,368.133 313.595,367.208C314.608,366.284 315.849,365.546 317.318,364.996C318.788,364.445 320.458,364.17 322.329,364.17C324.19,364.17 325.866,364.448 327.357,365.004C328.849,365.56 330.115,366.322 331.155,367.291C332.195,368.259 332.993,369.399 333.549,370.709C334.105,372.018 334.383,373.422 334.383,374.919C334.383,375.106 334.38,375.307 334.374,375.522C334.369,375.736 334.355,375.932 334.333,376.108L315.907,376.108C316.116,376.691 316.454,377.225 316.922,377.709C317.39,378.194 317.976,378.612 318.681,378.964C319.385,379.316 320.2,379.589 321.124,379.781C322.049,379.974 323.072,380.07 324.195,380.07C325.318,380.07 326.435,379.952 327.547,379.715C328.659,379.479 329.721,379.179 330.734,378.815L332.385,382.547C331.746,382.844 331.1,383.106 330.445,383.331C329.79,383.557 329.107,383.744 328.397,383.893C327.687,384.041 326.944,384.154 326.168,384.231C325.392,384.308 324.575,384.347 323.716,384.347C321.526,384.347 319.605,384.083 317.954,383.554C316.303,383.026 314.921,382.305 313.81,381.391C312.698,380.478 311.861,379.404 311.3,378.172C310.739,376.939 310.458,375.612 310.458,374.192ZM329.198,372.294C329.022,371.754 328.75,371.251 328.381,370.783C328.012,370.315 327.553,369.908 327.002,369.561C326.452,369.214 325.813,368.942 325.087,368.744C324.36,368.546 323.562,368.446 322.693,368.446C321.768,368.446 320.926,368.551 320.167,368.76C319.407,368.969 318.741,369.25 318.169,369.602C317.596,369.954 317.12,370.362 316.74,370.824C316.361,371.286 316.083,371.776 315.907,372.294L329.198,372.294Z" style="fill:white;fill-rule:nonzero;"/>
                <path d="M340.244,358.193L345.478,358.193L345.478,379.41L360.487,379.41L360.487,384L340.244,384L340.244,358.193Z" style="fill:white;fill-rule:nonzero;"/>
                <path d="M340.244,358.193L345.478,358.193L345.478,379.41L360.487,379.41L360.487,384L340.244,384L340.244,358.193Z" style="fill:white;fill-rule:nonzero;"/>
                <path d="M367.521,361.859C367.036,361.859 366.599,361.79 366.208,361.652C365.817,361.515 365.484,361.327 365.209,361.091C364.934,360.854 364.722,360.579 364.573,360.265C364.425,359.951 364.35,359.618 364.35,359.266C364.35,358.903 364.425,358.565 364.573,358.251C364.722,357.937 364.934,357.665 365.209,357.434C365.484,357.202 365.817,357.018 366.208,356.88C366.599,356.743 367.036,356.674 367.521,356.674C368.016,356.674 368.459,356.743 368.85,356.88C369.241,357.018 369.573,357.202 369.849,357.434C370.124,357.665 370.336,357.937 370.484,358.251C370.633,358.565 370.707,358.903 370.707,359.266C370.707,359.618 370.633,359.951 370.484,360.265C370.336,360.579 370.124,360.854 369.849,361.091C369.573,361.327 369.241,361.515 368.85,361.652C368.459,361.79 368.016,361.859 367.521,361.859ZM365.077,364.517L369.964,364.517L369.964,384L365.077,384L365.077,364.517Z" style="fill:white;fill-rule:nonzero;"/>
                <path d="M367.521,361.859C367.036,361.859 366.599,361.79 366.208,361.652C365.817,361.515 365.484,361.327 365.209,361.091C364.934,360.854 364.722,360.579 364.573,360.265C364.425,359.951 364.35,359.618 364.35,359.266C364.35,358.903 364.425,358.565 364.573,358.251C364.722,357.937 364.934,357.665 365.209,357.434C365.484,357.202 365.817,357.018 366.208,356.88C366.599,356.743 367.036,356.674 367.521,356.674C368.016,356.674 368.459,356.743 368.85,356.88C369.241,357.018 369.573,357.202 369.849,357.434C370.124,357.665 370.336,357.937 370.484,358.251C370.633,358.565 370.707,358.903 370.707,359.266C370.707,359.618 370.633,359.951 370.484,360.265C370.336,360.579 370.124,360.854 369.849,361.091C369.573,361.327 369.241,361.515 368.85,361.652C368.459,361.79 368.016,361.859 367.521,361.859ZM365.077,364.517L369.964,364.517L369.964,384L365.077,384L365.077,364.517Z" style="fill:white;fill-rule:nonzero;"/>
                <path d="M378.352,368.182L375.017,368.182L375.017,364.517L378.352,364.517C378.352,363.196 378.539,362.021 378.913,360.992C379.288,359.962 379.83,359.093 380.54,358.383C381.25,357.673 382.114,357.131 383.132,356.757C384.15,356.382 385.298,356.195 386.574,356.195C387.466,356.195 388.341,356.28 389.2,356.451C390.058,356.622 390.818,356.867 391.478,357.186L389.745,361.297C389.48,361.143 389.109,361 388.63,360.868C388.151,360.736 387.626,360.67 387.053,360.67C385.931,360.67 385.025,360.986 384.337,361.619C383.649,362.252 383.283,363.218 383.239,364.517L389.398,364.517L389.398,368.182L383.239,368.182L383.239,384L378.352,384L378.352,368.182Z" style="fill:white;fill-rule:nonzero;"/>
                <path d="M378.352,368.182L375.017,368.182L375.017,364.517L378.352,364.517C378.352,363.196 378.539,362.021 378.913,360.992C379.288,359.962 379.83,359.093 380.54,358.383C381.25,357.673 382.114,357.131 383.132,356.757C384.15,356.382 385.298,356.195 386.574,356.195C387.466,356.195 388.341,356.28 389.2,356.451C390.058,356.622 390.818,356.867 391.478,357.186L389.745,361.297C389.48,361.143 389.109,361 388.63,360.868C388.151,360.736 387.626,360.67 387.053,360.67C385.931,360.67 385.025,360.986 384.337,361.619C383.649,362.252 383.283,363.218 383.239,364.517L389.398,364.517L389.398,368.182L383.239,368.182L383.239,384L378.352,384L378.352,368.182Z" style="fill:white;fill-rule:nonzero;"/>
                <path d="M392.238,374.192C392.238,372.871 392.508,371.608 393.047,370.403C393.586,369.198 394.362,368.133 395.375,367.208C396.388,366.284 397.629,365.546 399.098,364.996C400.568,364.445 402.238,364.17 404.109,364.17C405.97,364.17 407.646,364.448 409.137,365.004C410.629,365.56 411.894,366.322 412.935,367.291C413.975,368.259 414.773,369.399 415.329,370.709C415.885,372.018 416.163,373.422 416.163,374.919C416.163,375.106 416.16,375.307 416.154,375.522C416.149,375.736 416.135,375.932 416.113,376.108L397.687,376.108C397.896,376.691 398.234,377.225 398.702,377.709C399.17,378.194 399.756,378.612 400.46,378.964C401.165,379.316 401.979,379.589 402.904,379.781C403.829,379.974 404.852,380.07 405.975,380.07C407.098,380.07 408.215,379.952 409.327,379.715C410.439,379.479 411.501,379.179 412.514,378.815L414.165,382.547C413.526,382.844 412.88,383.106 412.225,383.331C411.57,383.557 410.887,383.744 410.177,383.893C409.467,384.041 408.724,384.154 407.948,384.231C407.172,384.308 406.355,384.347 405.496,384.347C403.306,384.347 401.385,384.083 399.734,383.554C398.083,383.026 396.701,382.305 395.59,381.391C394.478,380.478 393.641,379.404 393.08,378.172C392.519,376.939 392.238,375.612 392.238,374.192ZM410.978,372.294C410.802,371.754 410.529,371.251 410.161,370.783C409.792,370.315 409.332,369.908 408.782,369.561C408.232,369.214 407.593,368.942 406.867,368.744C406.14,368.546 405.342,368.446 404.473,368.446C403.548,368.446 402.706,368.551 401.946,368.76C401.187,368.969 400.521,369.25 399.949,369.602C399.376,369.954 398.9,370.362 398.52,370.824C398.141,371.286 397.863,371.776 397.687,372.294L410.978,372.294Z" style="fill:white;fill-rule:nonzero;"/>
                <path d="M392.238,374.192C392.238,372.871 392.508,371.608 393.047,370.403C393.586,369.198 394.362,368.133 395.375,367.208C396.388,366.284 397.629,365.546 399.098,364.996C400.568,364.445 402.238,364.17 404.109,364.17C405.97,364.17 407.646,364.448 409.137,365.004C410.629,365.56 411.894,366.322 412.935,367.291C413.975,368.259 414.773,369.399 415.329,370.709C415.885,372.018 416.163,373.422 416.163,374.919C416.163,375.106 416.16,375.307 416.154,375.522C416.149,375.736 416.135,375.932 416.113,376.108L397.687,376.108C397.896,376.691 398.234,377.225 398.702,377.709C399.17,378.194 399.756,378.612 400.46,378.964C401.165,379.316 401.979,379.589 402.904,379.781C403.829,379.974 404.852,380.07 405.975,380.07C407.098,380.07 408.215,379.952 409.327,379.715C410.439,379.479 411.501,379.179 412.514,378.815L414.165,382.547C413.526,382.844 412.88,383.106 412.225,383.331C411.57,383.557 410.887,383.744 410.177,383.893C409.467,384.041 408.724,384.154 407.948,384.231C407.172,384.308 406.355,384.347 405.496,384.347C403.306,384.347 401.385,384.083 399.734,383.554C398.083,383.026 396.701,382.305 395.59,381.391C394.478,380.478 393.641,379.404 393.08,378.172C392.519,376.939 392.238,375.612 392.238,374.192ZM410.978,372.294C410.802,371.754 410.529,371.251 410.161,370.783C409.792,370.315 409.332,369.908 408.782,369.561C408.232,369.214 407.593,368.942 406.867,368.744C406.14,368.546 405.342,368.446 404.473,368.446C403.548,368.446 402.706,368.551 401.946,368.76C401.187,368.969 400.521,369.25 399.949,369.602C399.376,369.954 398.9,370.362 398.52,370.824C398.141,371.286 397.863,371.776 397.687,372.294L410.978,372.294Z" style="fill:white;fill-rule:nonzero;"/>
            </g>
        </g>
    </g>
</svg>
